<svg width="22" height="18" viewBox="0 0 22 18" fill="none" xmlns="http://www.w3.org/2000/svg">
<path d="M15 3.27999C14.9999 3.8817 14.7619 4.45898 14.338 4.88599C13.362 5.86999 12.415 6.89599 11.402 7.84399C11.2889 7.94702 11.1406 8.0027 10.9876 7.99954C10.8346 7.99637 10.6887 7.93461 10.58 7.82699L7.662 4.88699C7.23784 4.45971 6.9998 3.88205 6.9998 3.27999C6.9998 2.67792 7.23784 2.10027 7.662 1.67299C7.87365 1.45977 8.12541 1.29054 8.40276 1.17506C8.68011 1.05958 8.97757 1.00013 9.278 1.00013C9.57843 1.00013 9.87589 1.05958 10.1532 1.17506C10.4306 1.29054 10.6823 1.45977 10.894 1.67299L11 1.77999L11.106 1.67299C11.4237 1.35185 11.8298 1.13252 12.2725 1.04291C12.7153 0.953302 13.1747 0.997472 13.5923 1.1698C14.0098 1.34212 14.3667 1.63481 14.6174 2.01059C14.8681 2.38637 15.0013 2.82826 15 3.27999V3.27999Z" stroke="#008F76" stroke-width="1.5" stroke-linejoin="round"/>
<path d="M17 17L20.824 13.176C20.9366 13.0636 20.9999 12.9111 21 12.752V7.5C21 7.10218 20.842 6.72064 20.5607 6.43934C20.2794 6.15804 19.8978 6 19.5 6V6C19.1022 6 18.7206 6.15804 18.4393 6.43934C18.158 6.72064 18 7.10218 18 7.5V12" stroke="#008F76" stroke-width="1.5" stroke-linecap="round" stroke-linejoin="round"/>
<path d="M17 13L17.858 12.142C17.9031 12.097 17.9388 12.0435 17.9632 11.9847C17.9876 11.9258 18.0001 11.8627 18 11.799C17.9999 11.7091 17.9747 11.621 17.9274 11.5445C17.8801 11.468 17.8124 11.4062 17.732 11.366L17.289 11.145C16.9137 10.9573 16.4889 10.8925 16.0747 10.9596C15.6604 11.0267 15.2778 11.2224 14.981 11.519L14.086 12.414C13.7109 12.789 13.5001 13.2976 13.5 13.828V17M5 17L1.176 13.176C1.06345 13.0636 1.00014 12.9111 1 12.752V7.5C1 7.10218 1.15804 6.72064 1.43934 6.43934C1.72064 6.15804 2.10218 6 2.5 6V6C2.89782 6 3.27936 6.15804 3.56066 6.43934C3.84196 6.72064 4 7.10218 4 7.5V12" stroke="#008F76" stroke-width="1.5" stroke-linecap="round" stroke-linejoin="round"/>
<path d="M5 13L4.142 12.142C4.09697 12.0969 4.06125 12.0435 4.03688 11.9846C4.01252 11.9258 3.99999 11.8627 4 11.799V11.799C4 11.616 4.104 11.449 4.268 11.366L4.711 11.145C5.08631 10.9573 5.51114 10.8925 5.92534 10.9596C6.33955 11.0267 6.72216 11.2224 7.019 11.519L7.914 12.414C8.2891 12.789 8.49989 13.2976 8.5 13.828V17" stroke="#008F76" stroke-width="1.5" stroke-linecap="round" stroke-linejoin="round"/>
</svg>
